<svg width="10" height="10" viewBox="0 0 10 10" fill="none" xmlns="http://www.w3.org/2000/svg">
<path d="M0.948926 9.29934L0.950612 9.30103C0.995319 9.34607 1.04849 9.38182 1.10706 9.40624C1.16564 9.43066 1.22846 9.44326 1.29192 9.44331C1.34531 9.44327 1.39834 9.43447 1.44889 9.41725L4.20084 8.48371L9.48166 3.2029C9.80449 2.88004 9.98584 2.44216 9.98582 1.98559C9.9858 1.52902 9.80441 1.09115 9.48155 0.768324C9.1587 0.445493 8.72082 0.26414 8.26425 0.26416C7.80768 0.26418 7.36981 0.445571 7.04698 0.76843L1.76616 6.04925L0.832709 8.80113C0.803305 8.8867 0.798612 8.97883 0.819167 9.06695C0.839722 9.15507 0.884694 9.23561 0.948926 9.29934ZM7.48551 1.20692C7.69233 1.00168 7.97205 0.886761 8.26342 0.88732C8.55479 0.88788 8.83406 1.00388 9.04009 1.20991C9.24611 1.41594 9.3621 1.69522 9.36266 1.98659C9.36321 2.27796 9.24828 2.55767 9.04303 2.76448L8.3486 3.45891L6.79104 1.90135L7.48551 1.20692ZM2.30704 6.38538L6.35255 2.33985L7.91011 3.89741L3.86458 7.94292L1.50741 8.74254L2.30704 6.38538Z" fill="#FFFAFA"/>
</svg>
